<svg width="261" height="70" viewBox="0 0 261 70" fill="none" xmlns="http://www.w3.org/2000/svg">
<path d="M61 35.5002C61 52.3448 47.3447 66.0002 30.5 66.0002C13.6553 66.0002 0 52.3448 0 35.5002C0 18.6555 13.6553 0 30.5 0C47.3447 0 61 18.6555 61 35.5002Z" fill="#054E86"/>
<path d="M61 35.5C61 52.3447 47.3447 66 30.5 66C13.6553 66 0 52.3447 0 35.5C0 18.6553 13.6553 5 30.5 5C47.3447 5 61 18.6553 61 35.5Z" fill="#054E86"/>
<path d="M45.0434 43.8263C45.1372 46.5126 44.5582 48.8809 43.3063 50.9312C42.0544 52.9815 40.19 54.6049 37.7129 55.8014C35.277 56.9538 32.2681 57.5925 28.6863 57.7176C27.1086 57.7727 25.5484 57.7204 24.0059 57.5608C22.5061 57.3997 21.0459 57.1519 19.6253 56.8173C18.2459 56.4385 16.9275 55.9722 15.6701 55.4184L15.3552 46.3999C17.5626 47.2621 19.8318 48.058 22.1626 48.7878C24.5347 49.4734 26.872 49.7761 29.1746 49.6957C30.7523 49.6406 32.0028 49.3834 32.926 48.9243C33.8918 48.4636 34.5753 47.8634 34.9764 47.1236C35.4201 46.3823 35.6256 45.5427 35.5928 44.6046C35.5526 43.4533 35.1133 42.4867 34.2748 41.7048C33.479 40.9214 32.4082 40.2117 31.0626 39.5756C29.7154 38.8969 28.1748 38.1822 26.4409 37.4316C25.357 36.9571 24.1849 36.4004 22.9245 35.7613C21.6626 35.0796 20.4381 34.2471 19.2511 33.264C18.1052 32.2367 17.1438 30.9895 16.3668 29.5224C15.5897 28.0552 15.1648 26.277 15.0918 24.1876C14.9965 21.4586 15.5336 19.1131 16.7032 17.1511C17.9139 15.1449 19.6527 13.59 21.9196 12.4862C24.2291 11.3809 26.9615 10.7732 30.1169 10.663C32.5048 10.5796 34.7745 10.7778 36.9259 11.2577C39.1199 11.7361 41.4074 12.446 43.7884 13.3875L40.9178 21.0444C38.7987 20.2645 36.8994 19.6691 35.22 19.2581C33.5407 18.8472 31.8268 18.6722 30.0786 18.7332C28.8846 18.7749 27.868 19.0026 27.0285 19.4161C26.1891 19.8296 25.5468 20.3857 25.1016 21.0844C24.699 21.7815 24.5141 22.5991 24.5469 23.5372C24.5841 24.6032 24.9359 25.5088 25.6023 26.254C26.2672 26.9566 27.2512 27.6267 28.5543 28.2642C29.8573 28.9018 31.4846 29.6562 33.4362 30.5272C35.8202 31.554 37.8432 32.6361 39.5052 33.7734C41.2099 34.9093 42.5382 36.2718 43.4903 37.8608C44.4423 39.4499 44.96 41.4384 45.0434 43.8263Z" fill="white"/>
<mask id="mask0_270_214" style="mask-type:alpha" maskUnits="userSpaceOnUse" x="16" y="6" width="246" height="63">
<path d="M20 21C20 17.6667 28.1 10.2 60.5 7H116.5L163 21L180 24L205 16.5L260.5 24L249.5 64H163L46.5 68L17.5 53.5L20 21Z" fill="#D9D9D9" stroke="black"/>
</mask>
<g mask="url(#mask0_270_214)">
<path d="M77 57.64C74.9093 57.64 73.032 57.256 71.368 56.488C69.704 55.72 68.36 54.4827 67.336 52.776C66.3547 51.0693 65.864 48.872 65.864 46.184V25H72.776V44.456C72.776 47.016 73.288 48.9147 74.312 50.152C75.3787 51.3893 77.064 52.008 79.368 52.008C80.4347 52.008 81.4373 51.816 82.376 51.432C83.3147 51.048 84.1467 50.472 84.872 49.704C85.64 48.8933 86.2373 47.8907 86.664 46.696C87.0907 45.4587 87.304 44.0507 87.304 42.472V25H94.216V57H88.072L87.816 51.432C87.1333 52.7973 86.2587 53.9493 85.192 54.888C84.168 55.8267 82.9733 56.5307 81.608 57C80.2427 57.4267 78.7067 57.64 77 57.64ZM121.457 57.64C118.641 57.64 116.23 56.808 114.225 55.144C112.219 53.4373 110.897 51.2613 110.257 48.616L110.961 47.592L110.513 57H104.497V10.728H111.409V33.448L110.641 32.36C111.409 30.0133 112.731 28.0933 114.609 26.6C116.529 25.1067 118.875 24.36 121.649 24.36C124.166 24.36 126.427 25.0213 128.433 26.344C130.481 27.6667 132.102 29.5653 133.297 32.04C134.491 34.5147 135.089 37.5227 135.089 41.064C135.089 44.52 134.491 47.4853 133.297 49.96C132.102 52.4347 130.481 54.3333 128.433 55.656C126.385 56.9787 124.059 57.64 121.457 57.64ZM119.729 52.136C122.374 52.136 124.443 51.1547 125.937 49.192C127.43 47.2293 128.177 44.4987 128.177 41C128.177 37.5013 127.43 34.7707 125.937 32.808C124.486 30.8453 122.438 29.864 119.793 29.864C118.086 29.864 116.593 30.3333 115.312 31.272C114.075 32.2107 113.115 33.512 112.433 35.176C111.75 36.84 111.409 38.824 111.409 41.128C111.409 43.3893 111.75 45.352 112.433 47.016C113.115 48.6373 114.097 49.896 115.377 50.792C116.657 51.688 118.107 52.136 119.729 52.136ZM143.622 57V25H149.574L150.086 31.08C150.854 28.9467 152.027 27.304 153.606 26.152C155.227 24.9573 157.19 24.36 159.494 24.36C160.176 24.36 160.795 24.424 161.35 24.552C161.947 24.6373 162.459 24.8293 162.886 25.128L161.99 31.016C161.606 30.8453 161.115 30.7173 160.518 30.632C159.963 30.504 159.195 30.44 158.214 30.44C156.976 30.44 155.76 30.8027 154.566 31.528C153.371 32.2533 152.39 33.3413 151.622 34.792C150.896 36.2 150.534 37.9493 150.534 40.04V57H143.622ZM176.034 25V57H169.122V25H176.034ZM172.77 19.752C171.234 19.752 170.039 19.3893 169.186 18.664C168.375 17.896 167.97 16.808 167.97 15.4C167.97 13.992 168.375 12.9253 169.186 12.2C170.039 11.432 171.234 11.048 172.77 11.048C174.306 11.048 175.479 11.432 176.29 12.2C177.1 12.9253 177.506 13.992 177.506 15.4C177.506 16.808 177.1 17.896 176.29 18.664C175.479 19.3893 174.306 19.752 172.77 19.752ZM197.893 57.64C194.821 57.64 192.005 57.0427 189.445 55.848C186.928 54.6107 184.922 52.8613 183.429 50.6L187.717 46.568C188.656 48.4027 190 49.832 191.749 50.856C193.541 51.88 195.61 52.392 197.957 52.392C199.792 52.392 201.285 52.0293 202.437 51.304C203.589 50.5787 204.165 49.576 204.165 48.296C204.165 47.4427 203.888 46.7173 203.333 46.12C202.821 45.48 201.797 44.9893 200.261 44.648L194.181 43.304C190.81 42.536 188.4 41.4053 186.949 39.912C185.541 38.4187 184.837 36.52 184.837 34.216C184.837 32.4667 185.328 30.8667 186.309 29.416C187.333 27.9227 188.805 26.7067 190.725 25.768C192.688 24.8293 195.056 24.36 197.829 24.36C200.901 24.36 203.525 24.936 205.701 26.088C207.92 27.24 209.605 28.8613 210.757 30.952L206.469 34.728C205.701 32.9787 204.506 31.6987 202.885 30.888C201.306 30.0347 199.685 29.608 198.021 29.608C196.698 29.608 195.546 29.7787 194.565 30.12C193.626 30.4613 192.901 30.952 192.389 31.592C191.92 32.232 191.685 32.9573 191.685 33.768C191.685 34.6213 192.005 35.3893 192.645 36.072C193.285 36.7547 194.394 37.2667 195.973 37.608L202.821 39.08C205.808 39.72 207.92 40.744 209.157 42.152C210.437 43.56 211.077 45.3093 211.077 47.4C211.077 50.4293 209.904 52.904 207.557 54.824C205.253 56.7013 202.032 57.64 197.893 57.64ZM232.691 57.64C229.576 57.64 226.846 56.9787 224.499 55.656C222.152 54.3333 220.318 52.4347 218.995 49.96C217.672 47.4427 217.011 44.456 217.011 41C217.011 37.5013 217.651 34.5147 218.931 32.04C220.254 29.5653 222.067 27.6667 224.371 26.344C226.718 25.0213 229.363 24.36 232.307 24.36C235.336 24.36 237.918 25 240.051 26.28C242.184 27.56 243.806 29.3307 244.915 31.592C246.067 33.8107 246.643 36.3707 246.643 39.272C246.643 39.9973 246.622 40.6587 246.579 41.256C246.536 41.8533 246.494 42.3653 246.451 42.792H221.491V38.056H243.379L239.987 39.08C239.987 37.0747 239.667 35.3893 239.027 34.024C238.43 32.616 237.555 31.5493 236.403 30.824C235.251 30.0987 233.886 29.736 232.307 29.736C230.515 29.736 228.958 30.184 227.635 31.08C226.355 31.9333 225.374 33.2133 224.691 34.92C224.008 36.584 223.667 38.632 223.667 41.064C223.667 43.496 224.03 45.544 224.755 47.208C225.48 48.872 226.526 50.1307 227.891 50.984C229.256 51.8373 230.856 52.264 232.691 52.264C234.654 52.264 236.275 51.8587 237.555 51.048C238.835 50.1947 239.838 49.0427 240.563 47.592L246.067 50.024C245.342 51.6027 244.318 52.968 242.995 54.12C241.715 55.272 240.2 56.1467 238.451 56.744C236.702 57.3413 234.782 57.64 232.691 57.64Z" fill="#054E86"/>
</g>
<mask id="mask1_270_214" style="mask-type:alpha" maskUnits="userSpaceOnUse" x="156" y="6" width="25" height="16">
<path d="M169.5 21.5H180.5V7L157.5 13L169.5 21.5Z" fill="#D9D9D9" stroke="black"/>
</mask>
<g mask="url(#mask1_270_214)">
<path d="M176.096 25V57H169.184V25H176.096ZM172.832 19.752C171.296 19.752 170.101 19.3893 169.248 18.664C168.437 17.896 168.032 16.808 168.032 15.4C168.032 13.992 168.437 12.9253 169.248 12.2C170.101 11.432 171.296 11.048 172.832 11.048C174.368 11.048 175.541 11.432 176.352 12.2C177.163 12.9253 177.568 13.992 177.568 15.4C177.568 16.808 177.163 17.896 176.352 18.664C175.541 19.3893 174.368 19.752 172.832 19.752Z" fill="#B9E0FD"/>
</g>
</svg>
